<?xml version="1.0" standalone="no"?>
<!DOCTYPE svg PUBLIC "-//W3C//DTD SVG 20010904//EN"
 "http://www.w3.org/TR/2001/REC-SVG-20010904/DTD/svg10.dtd">
<svg version="1.0" xmlns="http://www.w3.org/2000/svg"
 width="100.000000pt" height="100.000000pt" viewBox="0 0 100.000000 100.000000"
 preserveAspectRatio="xMidYMid meet">
<metadata>
Created by potrace 1.14, written by Peter Selinger 2001-2017
</metadata>
<g transform="translate(0.000000,100.000000) scale(0.100000,-0.100000)"
fill="#000000" stroke="none">
<path d="M345 943 c-122 -44 -223 -135 -278 -250 -31 -65 -32 -73 -32 -194 0
-124 0 -126 37 -200 47 -95 130 -177 225 -222 66 -31 72 -32 198 -32 126 0
132 1 198 32 95 45 178 127 225 222 37 74 37 76 37 200 0 121 -1 129 -32 194
-45 95 -127 178 -222 225 -72 35 -80 37 -190 40 -91 2 -127 -1 -166 -15z m306
-62 l47 -22 -55 -127 c-29 -70 -64 -149 -77 -177 -13 -27 -40 -93 -61 -145
-20 -52 -40 -98 -44 -102 -3 -4 -6 21 -7 55 -1 56 -13 292 -19 377 -1 19 -3
52 -4 73 l-1 38 -42 -3 -43 -3 -76 -305 -75 -305 -26 45 c-47 80 -61 141 -56
243 3 77 9 102 35 157 48 100 134 178 234 214 65 24 209 17 270 -13z m208
-211 c23 -49 26 -67 26 -170 0 -109 -2 -118 -32 -180 -39 -80 -116 -158 -191
-196 -74 -36 -194 -45 -274 -20 -77 25 -133 67 -131 97 1 13 25 120 52 238 28
118 51 223 51 233 0 10 4 18 9 18 5 0 10 -37 11 -82 0 -46 3 -99 5 -118 2 -19
6 -87 10 -151 3 -64 8 -125 10 -135 2 -11 4 -24 4 -29 1 -6 11 -11 24 -12 19
-2 30 16 91 155 38 86 82 184 97 217 47 103 69 157 69 171 0 7 4 15 9 18 5 4
5 -10 0 -32 -11 -50 -14 -69 -44 -277 -41 -287 -41 -255 0 -255 21 0 35 5 35
13 0 6 5 41 10 77 5 36 12 81 14 100 3 19 10 73 16 120 6 47 13 100 16 118 8
64 13 98 19 154 l7 58 30 -38 c17 -20 42 -62 57 -92z"/>
</g>
</svg>
